<svg xmlns="http://www.w3.org/2000/svg" xmlns:xlink="http://www.w3.org/1999/xlink" width="170" height="55" viewBox="0 0 170 55"><defs><style>.a{isolation:isolate;}.b{opacity:0.5;mix-blend-mode:multiply;}.c{fill:#030038;}.d,.f{fill:#fff;}.d{stroke:#4676ed;stroke-miterlimit:10;stroke-width:1.5px;}.e{fill:url(#a);}.g{font-size:12.11px;font-family:Roboto-BlackItalic, Roboto;font-weight:800;font-style:italic;}.g,.n{fill:#7c7c7c;}.h{letter-spacing:-0.02em;}.i{letter-spacing:0em;}.j{letter-spacing:-0.01em;}.k{letter-spacing:-0.01em;}.l{letter-spacing:-0.01em;}.m{letter-spacing:-0.01em;}.n{font-size:8.7px;font-family:BebasNeue-Regular, Bebas Neue;letter-spacing:0.15em;}.o{letter-spacing:0.12em;}.p{letter-spacing:0.15em;}</style><linearGradient id="a" x1="11.29" y1="12.05" x2="42.44" y2="43.19" gradientUnits="userSpaceOnUse"><stop offset="0" stop-color="#4676ed"/><stop offset="0.19" stop-color="#436de4"/><stop offset="0.49" stop-color="#3c55cd"/><stop offset="0.87" stop-color="#302ea8"/><stop offset="1" stop-color="#2b1e99"/></linearGradient></defs><g class="a"><g class="b"><path class="c" d="M159.4,53.3H26.9A25.9,25.9,0,0,1,1,27.5H1A25.9,25.9,0,0,1,26.9,1.7H159.4a9.6,9.6,0,0,1,9.6,9.6V43.7A9.6,9.6,0,0,1,159.4,53.3Z"/></g><path class="d" d="M159.4,53.5H26.9A25.9,25.9,0,0,1,1,27.5H1a25.9,25.9,0,0,1,25.9-26H159.4a9.6,9.6,0,0,1,9.6,9.6V43.9A9.6,9.6,0,0,1,159.4,53.5Z"/><path class="e" d="M48.9,27.6A22.1,22.1,0,1,0,23.4,49.3V34H17.8V27.6h5.6V22.8c0-5.5,3.3-8.6,8.4-8.6a28.9,28.9,0,0,1,4.9.5v5.4H33.9c-2.7,0-3.6,1.7-3.6,3.4v4.1h6.1L35.5,34H30.3V49.3A21.9,21.9,0,0,0,48.9,27.6Z"/><path class="f" d="M35.2,33.5l1-6H30V23.1c0-1.8.9-3.6,3.8-3.6H37V14.1a35.4,35.4,0,0,0-4.8-.4c-5,0-8.2,3-8.2,8.5v5.3H18v6h5V48a20.6,20.6,0,0,0,7,0V33.5Z"/><text class="g" transform="translate(50.7 32.8)">@p<tspan class="h" x="17.3" y="0">r</tspan><tspan class="i" x="21.6" y="0">og</tspan><tspan class="j" x="35" y="0">r</tspan><tspan x="39.4" y="0">amauni</tspan><tspan class="k" x="78.8" y="0">v</tspan><tspan x="84.8" y="0">ersita</tspan><tspan x="0" y="14.5">riodep</tspan><tspan class="l" x="34.3" y="14.5">r</tspan><tspan class="m" x="38.7" y="14.5">ev</tspan><tspan x="51.1" y="14.5">encionunsl</tspan></text><text class="n" transform="translate(60.9 19.3)">SIGUENOS EN <tspan class="o" x="50.7" y="0">f</tspan><tspan class="p" x="54.7" y="0">a</tspan><tspan x="59.5" y="0">cebook</tspan></text></g></svg>