<svg xmlns="http://www.w3.org/2000/svg" xmlns:xlink="http://www.w3.org/1999/xlink" width="170" height="55" viewBox="0 0 170 55"><defs><style>.a,.j{fill:#fff;}.a{stroke:#c13584;stroke-miterlimit:10;stroke-width:1.5px;}.b{font-size:12.16px;font-family:Roboto-BlackItalic, Roboto;font-weight:800;font-style:italic;}.b,.f{fill:#7c7c7c;}.c{letter-spacing:-0.01em;}.d{letter-spacing:-0.01em;}.e{letter-spacing:0em;}.f{font-size:8.73px;font-family:BebasNeue-Regular, Bebas Neue;letter-spacing:0.15em;}.g{letter-spacing:0.1em;}.h{letter-spacing:0.15em;}.i{fill:url(#a);}</style><linearGradient id="a" x1="42.42" y1="12.44" x2="11.31" y2="43.56" gradientUnits="userSpaceOnUse"><stop offset="0" stop-color="#fbe18a"/><stop offset="0.21" stop-color="#fcbb45"/><stop offset="0.38" stop-color="#f75274"/><stop offset="0.52" stop-color="#d53692"/><stop offset="0.74" stop-color="#8f39ce"/><stop offset="1" stop-color="#5b4fe9"/></linearGradient></defs><path class="a" d="M169,43.9a9.6,9.6,0,0,1-9.6,9.6H26.9A25.9,25.9,0,0,1,1,27.5H1a25.9,25.9,0,0,1,25.9-26H159.4a9.6,9.6,0,0,1,9.6,9.6Z"/><text class="b" transform="translate(58.4 39.2)">@p<tspan class="c" x="17.3" y="0">r</tspan><tspan class="d" x="21.7" y="0">ev</tspan><tspan class="e" x="34.2" y="0">encionunsl</tspan></text><text class="f" transform="translate(60.7 19.8)">Siguenos en ins<tspan class="g" x="63.5" y="0">t</tspan><tspan class="h" x="67.6" y="0">a</tspan><tspan x="72.4" y="0">gram</tspan></text><circle class="i" cx="26.9" cy="28" r="22"/><circle class="j" cx="33.6" cy="21.3" r="1.5"/><path class="j" d="M26.8,21.7a6.4,6.4,0,0,0,0,12.8,6.4,6.4,0,0,0,0-12.8Zm0,10.5a4.1,4.1,0,0,1-4-4.1,4.1,4.1,0,1,1,8.1,0A4.1,4.1,0,0,1,26.8,32.2Z"/><path class="j" d="M32.1,41H21.6a7.7,7.7,0,0,1-7.7-7.8V22.8A7.7,7.7,0,0,1,21.6,15H32.1a7.8,7.8,0,0,1,7.8,7.8V33.2A7.8,7.8,0,0,1,32.1,41ZM15.9,23.3V33.7A5.3,5.3,0,0,0,21.2,39H31.5a5.4,5.4,0,0,0,5.4-5.3V23.3A5.4,5.4,0,0,0,31.5,18H21.2A5.3,5.3,0,0,0,15.9,23.3Z"/></svg>