<svg xmlns="http://www.w3.org/2000/svg" width="502.5" height="507.8" viewBox="0 0 502.5 507.8"><defs><style>.a{fill:#cc4576;}.b{fill:#fdb62f;}.c{fill:#fdb52e;}.d{fill:#45d5fb;}</style></defs><path class="a" d="M4.7,312V300.6c1.7-18.1,7.1-34.9,17.7-49.9,2.5-3.5,5.2-6.9,9-9.1a25.3,25.3,0,0,1-3.1,8.3,44.9,44.9,0,0,0-5.5,26.6c.7,9,2.5,17.6,8.5,24.7a55.1,55.1,0,0,0,15.5,17.1c14.2,10.4,30.4,12,47.3,10.3,9-.9,17.4-4,25.9-6.6,2.4-.7,5-.8,7.1-2.3l60.8-38.1a168.2,168.2,0,0,0,18.3-13c23.5-18.3,46.8-37,70.4-55.1s48.6-35.4,75.8-48.7c14.5-7.1,29.5-13,45.6-15.4,27.7-4,52.8,2.6,74.6,20.3,18.7,15.1,29.7,35,33.5,58.7,2.2,13.4,1.2,26.7-1.8,39.9-7.1,31.8-21.4,60.3-41.7,85.7a100.9,100.9,0,0,1-18.9,18.6c-.5.4-.9,1-1.7.8a19.9,19.9,0,0,1,.9-2.6c3.2-7.8,7.5-15.1,11.3-22.6,5.4-10.9,8.7-22.3,8-34.7a137.1,137.1,0,0,1,0-15.7c.4-5.9-1-11.3-3.2-16.6-5.9-13.7-15.9-22.4-31.1-24.2l-1.8-.5c-11.2-1.3-22.2.7-32.9,3.6-21.3,5.8-41.3,15-60.9,24.9-31.8,16.1-62.6,34.3-93.6,51.9-6.1,3.4-12.4,6.6-18.2,10.5l-3.1,1.7c-20.5,11.4-41.2,22.4-62.5,32.2-8.4,3.4-16.7,7.1-25.1,10.3-15.1,5.8-30.4,10.6-46.5,12.5-12.7,1.6-25.3,1.3-37.4-3.4-15.3-6.1-24.8-17.7-31-32.4s-8.4-29.9-9.5-45.4C5.1,319.3,4.9,315.6,4.7,312Z" transform="translate(-4.7 -2.1)"/><path class="b" d="M427.9,257c15.2,1.8,25.2,10.5,31.1,24.2,2.2,5.3,3.6,10.7,3.2,16.6a137.1,137.1,0,0,0,0,15.7c.7,12.4-2.6,23.8-8,34.7-3.8,7.5-8.1,14.8-11.3,22.6a19.9,19.9,0,0,0-.9,2.6c-9.8,12.9-19.9,25.7-31.2,37.5-23,24.1-47.5,46.6-74.7,66-15.6,11.2-31.9,21.2-50.1,27.9a84.4,84.4,0,0,1-21,4.9c-9,.9-17.3-1.5-25.3-5.6-11.2-6-20.7-14.1-29.5-23.2C198.8,469,189,456,181.6,441.2a47.7,47.7,0,0,1-4.5-12.1c4,2.7,6.8,6.6,9.9,10.3,5.6,6.6,11.9,12.3,20.9,13.4,21.4,2.4,40.6-3,56.9-17.4,5-1.5,8.9-4.9,12.8-8,22.8-18,44-37.8,65.2-57.6,12.3-11.4,24.6-22.7,36.8-34.2,14.2-13.4,28-27.2,38.9-43.6C425.6,281.4,429.7,270,427.9,257Z" transform="translate(-4.7 -2.1)"/><path class="a" d="M326.1,140.4A69.1,69.1,0,0,1,256.9,71c0-19.1,6.9-35.4,20.4-49C292.9,6.4,312,.7,333.7,2.4c31,2.3,61.9,30.3,61.8,68.7A69.2,69.2,0,0,1,326.1,140.4Z" transform="translate(-4.7 -2.1)"/><path class="c" d="M119.9,195.4a57.8,57.8,0,0,1-57.5-57.8c.2-31.6,26.4-57.6,58-57.4s57.3,26.2,57.2,58.3S151.6,195.4,119.9,195.4Z" transform="translate(-4.7 -2.1)"/><path class="d" d="M187.9,281.6l-60.8,38.1c-.9-.8-1.1-2-1.6-3-4-8.3-7.5-16.9-12.1-24.9s-10.1-16-17.9-21.9c-10.1-7.5-21.6-9.8-34-8.5C45.9,263,36.2,271.6,33,287c-.9,4.7-1,9.4-1.7,14.2-6-7.1-7.8-15.7-8.5-24.7a44.9,44.9,0,0,1,5.5-26.6,25.3,25.3,0,0,0,3.1-8.3,74.9,74.9,0,0,1,33.2-21.3c17-5.3,33.9-4.3,50.7.8a129.9,129.9,0,0,1,56.5,35.1C178.9,263.5,185.2,271.4,187.9,281.6Z" transform="translate(-4.7 -2.1)"/><path class="d" d="M264.8,435.4c-16.3,14.4-35.5,19.8-56.9,17.4-9-1.1-15.3-6.8-20.9-13.4-3.1-3.7-5.9-7.6-9.9-10.3-7.7-15.3-14.7-30.8-21.7-46.3a8.8,8.8,0,0,1-.5-1.5c21.3-9.8,42-20.8,62.5-32.2l3.1-1.7a25.9,25.9,0,0,0,1.4,2.9Z" transform="translate(-4.7 -2.1)"/></svg>